PathFileType	4	(X/Y/Z)	pose2sim_0-719.trc
DataRate	CameraRate	NumFrames	NumMarkers	Units	OrigDataRate	OrigDataStartFrame	OrigNumFrames
50	50	5	22	m	50	90	720
Frame#	Time	Hip			RHip			RKnee			RAnkle			RBigToe			RSmallToe			RHeel			LHip			LKnee			LAnkle			LBigToe			LSmallToe			LHeel			Neck			Head			Nose			RShoulder			RElbow			RWrist			LShoulder			LElbow			LWrist			
		X1	Y1	Z1	X2	Y2	Z2	X3	Y3	Z3	X4	Y4	Z4	X5	Y5	Z5	X6	Y6	Z6	X7	Y7	Z7	X8	Y8	Z8	X9	Y9	Z9	X10	Y10	Z10	X11	Y11	Z11	X12	Y12	Z12	X13	Y13	Z13	X14	Y14	Z14	X15	Y15	Z15	X16	Y16	Z16	X17	Y17	Z17	X18	Y18	Z18	X19	Y19	Z19	X20	Y20	Z20	X21	Y21	Z21	X22	Y22	Z22	
90	1.8	0.13063876052319784	0.7968904647986387	-0.11802353569895738	0.02989196124107367	0.7857904140314295	-0.11836001072054037	0.009679923775321808	0.4280232835326543	-0.13791948305475923	0.0025252468405006544	0.065830646701415	-0.15184885954365798	-0.033920317043100064	0.028899004726929953	0.02578158003285696	-0.07182905889655299	0.02927361243242861	-0.041300521018591475	0.014056490686998433	0.028852050738566518	-0.18417294070265725	0.2325297762744256	0.7824501060829371	-0.1149009663952166	0.25729017950150507	0.4235221075278632	-0.1258690070300571	0.2672317754916453	0.06746854282946035	-0.1422790222217631	0.28046724501987474	0.029404224302528998	0.021741613534052948	0.3224859571494705	0.031177036175008315	-0.02799852606456289	0.2609122774766848	0.03311312000272247	-0.17129913549169268	0.13530763244125998	1.361954017238871	-0.08391605887562834	0.1345480048577258	1.5763752343106479	-0.02520119959808185	0.12334911351443971	1.4573892584137258	0.06022270635579505	-0.02046480138432747	1.2657841494025956	-0.11650733336654809	-0.12480987571077506	1.026605918492164	-0.11287925814961956	-0.21743099025251067	0.8200059624341104	-0.10965575472940345	0.2911671994851623	1.2652916513327366	-0.10778456036937269	0.3919828696049689	1.022230130499337	-0.10510032999832879	0.4804905554430078	0.8108308659052857	-0.07187554174785553
91	1.82	0.13084750428130418	0.7967194941328217	-0.11194703716744964	0.028145936408530307	0.7843827101232191	-0.11403862748231994	0.00935701065657672	0.42700392103535173	-0.13708049802053116	0.001128591403265648	0.06648285047076677	-0.15306639234561065	-0.032209084126366125	0.030469549723260426	0.020042401729632838	-0.0721570695467308	0.02835631099756074	-0.045184262508698156	0.013964944547768851	0.0320174958772896	-0.18631335023395254	0.23269103623842863	0.782110443650335	-0.11347794330317913	0.2575037037083978	0.42368048562167043	-0.12544397796132037	0.2659721783632067	0.06946452487328593	-0.1397552684113443	0.2809798527237776	0.030223091234569434	0.012887288245844028	0.32154847767091793	0.03371970840556441	-0.03307656546574146	0.2602545148761459	0.034058118749556075	-0.17504002828725163	0.1354316382336173	1.3621962708546465	-0.08405271650152799	0.13713358316105656	1.575835193406962	-0.030757213820202023	0.1223675057731591	1.4567223188051823	0.06296242363544857	-0.022241784403290672	1.2657494311053838	-0.11967518029214146	-0.12425609467518761	1.0232946625046329	-0.10977301614877195	-0.21492252954526941	0.8146059409821567	-0.10017547642736187	0.29293758730548725	1.2654650338456175	-0.11077053669269635	0.3913266903472041	1.0228459832604797	-0.10829490788057894	0.4774311283872033	0.8107896098893137	-0.0668899032785024
92	1.84	0.1307378088175964	0.7999479326197886	-0.10400363407814124	0.033237826986532014	0.7872574857279461	-0.10892639591393055	0.011188244346732478	0.4238751194131844	-0.13443089211016987	0.0015165499240476807	0.0671368655442656	-0.15853022327754673	-0.027901537498315494	0.037083990250965045	0.020607095563183464	-0.06656917205206137	0.033726556784465296	-0.03619838220602962	0.010502299036740851	0.027322432681975175	-0.18886519011897876	0.23090069726505666	0.7863325555557152	-0.10524663028246091	0.2562088848004274	0.4235237779670943	-0.11895555215988105	0.2662705991980829	0.06822736431689727	-0.13984923042083308	0.2748214160714041	0.034492661888991076	0.030392408548082107	0.31062389618026104	0.03261948593711844	-0.018997448694647333	0.2554518520911816	0.030449060996318427	-0.17212607643403638	0.13784712427953136	1.3616868541282912	-0.08369491136726818	0.13144605163265013	1.573996215410943	-0.029084389545062005	0.12162073865067767	1.454853814686863	0.05557366146786774	-0.024057492385662387	1.2625842117296147	-0.11414420204435644	-0.12343653438314743	1.0241270031510121	-0.1070768960115001	-0.2165649483523944	0.8150596265603733	-0.09016567587487377	0.29574173992124425	1.2659195467124469	-0.10432322188620703	0.395129703932256	1.0220173642006949	-0.09414147487153625	0.4751400600633871	0.8101017794167208	-0.05966746986036115
93	1.86	0.12995835913458834	0.7973420515355285	-0.11580259912302704	0.030395288902593836	0.7846969217180048	-0.11892121256606247	0.00904857009700527	0.42713325781416916	-0.1398023716405637	-0.0005310160989168719	0.06530696661720219	-0.15135501070495203	-0.03416348887504331	0.03051591457407246	0.018572519992107742	-0.07248564883052146	0.029363572939567237	-0.04634163548126284	0.012327898773304107	0.030695370201073175	-0.189288629672594	0.23304865295020416	0.7824697620892488	-0.11106495069990102	0.25891759848263385	0.4251008476504891	-0.12949225596318342	0.2664599800959119	0.06804184081242128	-0.14168171449586855	0.28842825998101895	0.02972377283511525	0.011858202782792678	0.32576770043018466	0.03230246319618815	-0.03033158489649923	0.25751595356274637	0.03369270231208408	-0.17029251228123432	0.1346054514801023	1.3630658145201455	-0.0827513804282817	0.1347370383104451	1.575014811112923	-0.027039849945072723	0.11838651182697807	1.4559872525669748	0.06415198365486081	-0.02368111512934802	1.2660051197812145	-0.120185841269794	-0.12326849441870032	1.0241929166971073	-0.10925819451416917	-0.21357700269747856	0.8147379628023916	-0.09219090604050495	0.2914987495179712	1.266691654661513	-0.10692284541676758	0.39107719818532055	1.0247902991506985	-0.10820278438138203	0.47560979360315997	0.8098318217810976	-0.05962737061389176
94	1.88	0.13022626459469236	0.7973249098976009	-0.11379074035472178	0.030473877947717068	0.7857752231194031	-0.11675305237782863	0.010557350367585474	0.42675956024806777	-0.13812550760271666	-0.0004969726910896459	0.06571337031032665	-0.15343566202807518	-0.03624208060551176	0.029688516369893257	0.026265693968961175	-0.0736337790902898	0.030024776473331294	-0.04576826022653544	0.012598283924826054	0.029858646939630307	-0.18232896682341299	0.23369272114676506	0.7848283109631546	-0.11373735907423188	0.2596212659560575	0.4246204827862962	-0.1289413585823193	0.2667778726473143	0.0708064344519523	-0.13878679694069251	0.28788331152519675	0.03022664979235542	0.02211167278837063	0.32521029358318887	0.034063343546190644	-0.022744502736361742	0.257993750896135	0.03288089735833787	-0.1731314884065765	0.13645756588185307	1.3624838714774117	-0.08481189798029866	0.13671832942522316	1.5751406468992692	-0.02840121071259347	0.11584476594700674	1.4567218037635472	0.05757562259326003	-0.0208739558512946	1.2652523258869874	-0.11968045447146959	-0.12184217300194884	1.0231726678136877	-0.1062085809939879	-0.21326466897497307	0.8149326102078062	-0.08764245614929951	0.29225404125417687	1.264911429995979	-0.11048721106201767	0.3918843526866315	1.0237466975056804	-0.10502901536740271	0.4738727368784319	0.8097586399222199	-0.049473238957290486
